# xmcd
#
# Track frame offsets:
#	150
#	13862
#	24192
#	41657
#	57532
#	69707
#	84487
#	98152
#	114137
#	123955
#	138382
#	151357
#	166887
#	181490
#
# Disc length: 2660
#
# Revision: 1
# Processed by: cddbd v1.5.1PL0 Copyright (c) Steve Scherf et al.
# Submitted via: CDex 1.50
# Normalized: r0:DSETVAR1,TDELIM( - )
#
DISCID=b20a620e
DTITLE=Various Artist - The Sound Of Big Band Vol. 1
DYEAR=1900
DGENRE=Jazz
TTITLE0=Charlie Barnet - Skyliner
TTITLE1=Benny Goodman - Let's Dance
TTITLE2=Duke Ellington - Satin Doll
TTITLE3=Harry James - You Made Me Love You
TTITLE4=Ray Anthony - Dinah
TTITLE5=Lionel Hampton - Midnight Sun
TTITLE6=Bob Crosby - 9:20 Special
TTITLE7=Count Basie - One O'Clock Jump
TTITLE8=Billy May - Bye Bye Blackbird
TTITLE9=Gene Krupa - How High The Moon
TTITLE10=Glenn Miller - And The Angels Sing
TTITLE11=Benny Goodman - Somebody Stole My Gal
TTITLE12=Les Brown - Harlem Notturno
TTITLE13=Count Basie - Lil'Darlin'
EXTD=
EXTT0=
EXTT1=
EXTT2=
EXTT3=
EXTT4=
EXTT5=
EXTT6=
EXTT7=
EXTT8=
EXTT9=
EXTT10=
EXTT11=
EXTT12=
EXTT13=
PLAYORDER=
